<mxfile host="Electron" modified="2024-04-08T23:05:34.878Z" agent="Mozilla/5.0 (Windows NT 10.0; Win64; x64) AppleWebKit/537.36 (KHTML, like Gecko) draw.io/24.1.0 Chrome/120.0.6099.109 Electron/28.1.0 Safari/537.36" etag="ximZMcrwAfrZNicdcQJI" version="24.1.0" type="device">
  <diagram name="Página-1" id="GNeq5tJ3PKhzyI8ilKTT">
    <mxGraphModel dx="880" dy="532" grid="1" gridSize="10" guides="1" tooltips="1" connect="1" arrows="1" fold="1" page="1" pageScale="1" pageWidth="827" pageHeight="1169" math="0" shadow="0">
      <root>
        <mxCell id="0" />
        <mxCell id="1" parent="0" />
        <mxCell id="yveyRkrHJfnH7MT2UcP_-2" style="edgeStyle=orthogonalEdgeStyle;rounded=0;orthogonalLoop=1;jettySize=auto;html=1;" edge="1" parent="1">
          <mxGeometry relative="1" as="geometry">
            <mxPoint x="414" y="179" as="targetPoint" />
            <mxPoint x="414" y="119" as="sourcePoint" />
          </mxGeometry>
        </mxCell>
        <mxCell id="yveyRkrHJfnH7MT2UcP_-1" value="Inicio" style="ellipse;whiteSpace=wrap;html=1;" vertex="1" parent="1">
          <mxGeometry x="354" y="40" width="120" height="80" as="geometry" />
        </mxCell>
        <mxCell id="yveyRkrHJfnH7MT2UcP_-7" style="edgeStyle=orthogonalEdgeStyle;rounded=0;orthogonalLoop=1;jettySize=auto;html=1;entryX=0.5;entryY=0;entryDx=0;entryDy=0;" edge="1" parent="1" source="yveyRkrHJfnH7MT2UcP_-6" target="yveyRkrHJfnH7MT2UcP_-10">
          <mxGeometry relative="1" as="geometry">
            <mxPoint x="560" y="310" as="targetPoint" />
          </mxGeometry>
        </mxCell>
        <mxCell id="yveyRkrHJfnH7MT2UcP_-15" style="edgeStyle=orthogonalEdgeStyle;rounded=0;orthogonalLoop=1;jettySize=auto;html=1;" edge="1" parent="1" source="yveyRkrHJfnH7MT2UcP_-6">
          <mxGeometry relative="1" as="geometry">
            <mxPoint x="340" y="380" as="targetPoint" />
            <Array as="points">
              <mxPoint x="300" y="225" />
            </Array>
          </mxGeometry>
        </mxCell>
        <mxCell id="yveyRkrHJfnH7MT2UcP_-6" value="El carro está afuera del garaje&amp;nbsp;" style="rhombus;whiteSpace=wrap;html=1;" vertex="1" parent="1">
          <mxGeometry x="314" y="180" width="199" height="90" as="geometry" />
        </mxCell>
        <mxCell id="yveyRkrHJfnH7MT2UcP_-8" value="F" style="text;html=1;align=center;verticalAlign=middle;resizable=0;points=[];autosize=1;strokeColor=none;fillColor=none;" vertex="1" parent="1">
          <mxGeometry x="414" y="270" width="30" height="30" as="geometry" />
        </mxCell>
        <mxCell id="yveyRkrHJfnH7MT2UcP_-11" style="edgeStyle=orthogonalEdgeStyle;rounded=0;orthogonalLoop=1;jettySize=auto;html=1;entryX=0;entryY=0.5;entryDx=0;entryDy=0;" edge="1" parent="1" source="yveyRkrHJfnH7MT2UcP_-10" target="yveyRkrHJfnH7MT2UcP_-13">
          <mxGeometry relative="1" as="geometry">
            <mxPoint x="720" y="350" as="targetPoint" />
          </mxGeometry>
        </mxCell>
        <mxCell id="yveyRkrHJfnH7MT2UcP_-19" style="edgeStyle=orthogonalEdgeStyle;rounded=0;orthogonalLoop=1;jettySize=auto;html=1;" edge="1" parent="1" source="yveyRkrHJfnH7MT2UcP_-10">
          <mxGeometry relative="1" as="geometry">
            <mxPoint x="414" y="490" as="targetPoint" />
          </mxGeometry>
        </mxCell>
        <mxCell id="yveyRkrHJfnH7MT2UcP_-10" value="El carro está sucio" style="rhombus;whiteSpace=wrap;html=1;" vertex="1" parent="1">
          <mxGeometry x="344" y="340" width="140" height="80" as="geometry" />
        </mxCell>
        <mxCell id="yveyRkrHJfnH7MT2UcP_-13" value="Fin" style="ellipse;whiteSpace=wrap;html=1;" vertex="1" parent="1">
          <mxGeometry x="690" y="340" width="120" height="80" as="geometry" />
        </mxCell>
        <mxCell id="yveyRkrHJfnH7MT2UcP_-14" value="F" style="text;html=1;align=center;verticalAlign=middle;resizable=0;points=[];autosize=1;strokeColor=none;fillColor=none;" vertex="1" parent="1">
          <mxGeometry x="484" y="350" width="30" height="30" as="geometry" />
        </mxCell>
        <mxCell id="yveyRkrHJfnH7MT2UcP_-16" value="V" style="text;html=1;align=center;verticalAlign=middle;resizable=0;points=[];autosize=1;strokeColor=none;fillColor=none;" vertex="1" parent="1">
          <mxGeometry x="311" y="195" width="30" height="30" as="geometry" />
        </mxCell>
        <mxCell id="yveyRkrHJfnH7MT2UcP_-20" value="V" style="text;html=1;align=center;verticalAlign=middle;resizable=0;points=[];autosize=1;strokeColor=none;fillColor=none;" vertex="1" parent="1">
          <mxGeometry x="415" y="421" width="30" height="30" as="geometry" />
        </mxCell>
        <mxCell id="yveyRkrHJfnH7MT2UcP_-23" style="edgeStyle=orthogonalEdgeStyle;rounded=0;orthogonalLoop=1;jettySize=auto;html=1;entryX=0.5;entryY=0;entryDx=0;entryDy=0;" edge="1" parent="1" source="yveyRkrHJfnH7MT2UcP_-21" target="yveyRkrHJfnH7MT2UcP_-22">
          <mxGeometry relative="1" as="geometry" />
        </mxCell>
        <mxCell id="yveyRkrHJfnH7MT2UcP_-21" value="Verificar que estén los materiales para lavar el carro" style="rounded=1;whiteSpace=wrap;html=1;" vertex="1" parent="1">
          <mxGeometry x="354" y="490" width="120" height="60" as="geometry" />
        </mxCell>
        <mxCell id="yveyRkrHJfnH7MT2UcP_-24" style="edgeStyle=orthogonalEdgeStyle;rounded=0;orthogonalLoop=1;jettySize=auto;html=1;" edge="1" parent="1" source="yveyRkrHJfnH7MT2UcP_-22">
          <mxGeometry relative="1" as="geometry">
            <mxPoint x="480" y="700" as="targetPoint" />
          </mxGeometry>
        </mxCell>
        <mxCell id="yveyRkrHJfnH7MT2UcP_-30" style="edgeStyle=orthogonalEdgeStyle;rounded=0;orthogonalLoop=1;jettySize=auto;html=1;" edge="1" parent="1" source="yveyRkrHJfnH7MT2UcP_-22">
          <mxGeometry relative="1" as="geometry">
            <mxPoint x="280" y="780" as="targetPoint" />
          </mxGeometry>
        </mxCell>
        <mxCell id="yveyRkrHJfnH7MT2UcP_-22" value="Hay materiales" style="rhombus;whiteSpace=wrap;html=1;" vertex="1" parent="1">
          <mxGeometry x="374" y="600" width="80" height="80" as="geometry" />
        </mxCell>
        <mxCell id="yveyRkrHJfnH7MT2UcP_-27" style="edgeStyle=orthogonalEdgeStyle;rounded=0;orthogonalLoop=1;jettySize=auto;html=1;entryX=0;entryY=1;entryDx=0;entryDy=0;" edge="1" parent="1" source="yveyRkrHJfnH7MT2UcP_-26" target="yveyRkrHJfnH7MT2UcP_-13">
          <mxGeometry relative="1" as="geometry">
            <mxPoint x="590" y="790" as="targetPoint" />
          </mxGeometry>
        </mxCell>
        <mxCell id="yveyRkrHJfnH7MT2UcP_-33" style="edgeStyle=orthogonalEdgeStyle;rounded=0;orthogonalLoop=1;jettySize=auto;html=1;" edge="1" parent="1" source="yveyRkrHJfnH7MT2UcP_-26">
          <mxGeometry relative="1" as="geometry">
            <mxPoint x="479" y="840" as="targetPoint" />
          </mxGeometry>
        </mxCell>
        <mxCell id="yveyRkrHJfnH7MT2UcP_-26" value="Disponibilidad para ir a comprarlos" style="rhombus;whiteSpace=wrap;html=1;" vertex="1" parent="1">
          <mxGeometry x="394" y="700" width="170" height="80" as="geometry" />
        </mxCell>
        <mxCell id="yveyRkrHJfnH7MT2UcP_-28" value="F" style="text;html=1;align=center;verticalAlign=middle;resizable=0;points=[];autosize=1;strokeColor=none;fillColor=none;" vertex="1" parent="1">
          <mxGeometry x="564" y="710" width="30" height="30" as="geometry" />
        </mxCell>
        <mxCell id="yveyRkrHJfnH7MT2UcP_-29" value="F" style="text;html=1;align=center;verticalAlign=middle;resizable=0;points=[];autosize=1;strokeColor=none;fillColor=none;" vertex="1" parent="1">
          <mxGeometry x="452" y="609" width="30" height="30" as="geometry" />
        </mxCell>
        <mxCell id="yveyRkrHJfnH7MT2UcP_-31" value="V" style="text;html=1;align=center;verticalAlign=middle;resizable=0;points=[];autosize=1;strokeColor=none;fillColor=none;" vertex="1" parent="1">
          <mxGeometry x="343" y="610" width="30" height="30" as="geometry" />
        </mxCell>
        <mxCell id="yveyRkrHJfnH7MT2UcP_-37" style="edgeStyle=orthogonalEdgeStyle;rounded=0;orthogonalLoop=1;jettySize=auto;html=1;entryX=0.5;entryY=1;entryDx=0;entryDy=0;" edge="1" parent="1" source="yveyRkrHJfnH7MT2UcP_-32" target="yveyRkrHJfnH7MT2UcP_-13">
          <mxGeometry relative="1" as="geometry">
            <mxPoint x="750" y="870" as="targetPoint" />
            <Array as="points">
              <mxPoint x="284" y="940" />
              <mxPoint x="751" y="940" />
            </Array>
          </mxGeometry>
        </mxCell>
        <mxCell id="yveyRkrHJfnH7MT2UcP_-32" value="Preparar materiales y lavar carro" style="rounded=1;whiteSpace=wrap;html=1;" vertex="1" parent="1">
          <mxGeometry x="224" y="780" width="120" height="60" as="geometry" />
        </mxCell>
        <mxCell id="yveyRkrHJfnH7MT2UcP_-34" value="V" style="text;html=1;align=center;verticalAlign=middle;resizable=0;points=[];autosize=1;strokeColor=none;fillColor=none;" vertex="1" parent="1">
          <mxGeometry x="485" y="778" width="30" height="30" as="geometry" />
        </mxCell>
        <mxCell id="yveyRkrHJfnH7MT2UcP_-36" style="edgeStyle=orthogonalEdgeStyle;rounded=0;orthogonalLoop=1;jettySize=auto;html=1;entryX=1;entryY=0.5;entryDx=0;entryDy=0;" edge="1" parent="1" source="yveyRkrHJfnH7MT2UcP_-35" target="yveyRkrHJfnH7MT2UcP_-32">
          <mxGeometry relative="1" as="geometry" />
        </mxCell>
        <mxCell id="yveyRkrHJfnH7MT2UcP_-35" value="Ir a comprarlos y luego regresar" style="rounded=1;whiteSpace=wrap;html=1;" vertex="1" parent="1">
          <mxGeometry x="419" y="840" width="120" height="60" as="geometry" />
        </mxCell>
      </root>
    </mxGraphModel>
  </diagram>
</mxfile>
